<svg width="128" height="128" viewBox="0 0 96 96" xmlns="http://www.w3.org/2000/svg"><path d="M4.79 35.69c5.26-5.36 10.6-10.64 15.92-15.95C29.81 28.83 38.89 37.93 48 47c9.09-9.08 18.19-18.12 27.24-27.24 5.41 5.2 10.62 10.6 15.97 15.85C76.89 50.14 62.35 64.45 48 78.95 33.63 64.5 19.19 50.11 4.79 35.69m8.47-.04C24.81 47.27 36.43 58.82 48 70.41c11.57-11.59 23.18-23.14 34.73-34.75-2.47-2.48-4.91-5-7.43-7.44-9.14 9.07-18.2 18.21-27.31 27.31-9.09-9.11-18.16-18.25-27.3-27.3-2.51 2.43-4.95 4.95-7.43 7.42z"/></svg>
