<svg width="128" height="128" viewBox="0 0 96 96" xmlns="http://www.w3.org/2000/svg"><path fill="#FFFFFF" d="M12 21.91c11.96-4.42 23.93-8.83 35.97-12.99 12.07 4.11 24.05 8.59 36.02 12.99.02 15.28.01 30.55.01 45.83-12.04 6.48-23.99 13.13-36 19.65-12.02-6.52-23.96-13.17-36-19.64V21.91m10.91 2.37c8.35 3.83 16.77 7.53 25.08 11.45 8.32-3.91 16.73-7.61 25.08-11.45-8.37-2.99-16.67-6.18-25.08-9.06-8.41 2.88-16.71 6.08-25.08 9.06m-4.9 4.29c-.07 11.84.08 23.67-.07 35.51 8.96 5.04 18.05 9.84 27.05 14.79.05-12.64-.05-25.28.05-37.91-8.98-4.2-18.03-8.23-27.03-12.39M51 40.88c.02 12.66-.03 25.33.02 38 8.99-4.92 17.99-9.81 26.99-14.7-.04-11.87.01-23.74-.02-35.61-9 4.11-17.98 8.23-26.99 12.31z"/><path fill="#FFFFFF" d="M45.26 21.37c2.69-.56 5.84-.5 8.09 1.26 1.4 1.14.27 3.07-1.16 3.48-3.15 1.33-7.54 1.38-10-1.29-.87-1.97 1.53-3.1 3.07-3.45zM37.26 42.18c3.42-.78 5.98 4.53 4.05 7.2-3.83 2.03-7.22-4.9-4.05-7.2zM59.27 45.28c2.8-1.46 4.55 2.25 3.44 4.49-.52 2.75-4.16 5.82-6.51 3.03-.8-2.8.58-6.05 3.07-7.52zM34.09 56.25c-4.56 2.59-8.5-7-3.11-7.47 2.81 1.28 3.85 4.61 3.11 7.47zM70.37 52.34c6.34-.26 1.89 11.59-3.18 8.28-1.83-2.82.18-7.09 3.18-8.28zM22.38 55.41c3.31-.75 5.66 4.39 4.09 7.09-3.82 2.42-7.59-4.96-4.09-7.09z"/></svg>
