<svg width="128" height="128" viewBox="0 0 96 96" xmlns="http://www.w3.org/2000/svg"><path fill="#FFFFFF" d="M12 15h72c0 11.1.01 22.2-.01 33.3 5.24-1.44 10.91 1.79 12.01 7.17v2.85c-.85 3.85-4.01 6.37-6.65 9.02-7.17 7.14-14.31 14.32-21.44 21.5-1.74 1.64-3.26 3.96-5.85 4.2-4.63.86-9.26 1.69-13.84 2.74.96-4.93 1.97-9.85 2.93-14.77-13.05-.03-26.1 0-39.15-.01V15m6 6v6h60v-6H18m0 12v42c12.71.02 25.42-.05 38.13.03 7.32-7.25 14.66-14.48 21.9-21.82-.06-6.73-.01-13.47-.03-20.21H18m65.89 22.88c-8.67 8.7-17.42 17.31-26.04 26.04-1.65 1.6-1.41 4.13-1.97 6.2 2.32-.54 5.12-.42 6.71-2.51 8.79-8.89 17.69-17.67 26.5-26.55 2.02-1.66.42-5.21-2.1-5.08-1.36-.11-2.17 1.16-3.1 1.9z"/><path fill="#FFFFFF" d="M27 42h6v6h-6v-6zM39 42h30v6H39v-6zM27 54h6v6h-6v-6zM39 54h18v6H39v-6z"/></svg>
