<svg width="128" height="128" viewBox="0 0 96 96" style="fill: #30b900;" xmlns="http://www.w3.org/2000/svg"><path d="M43.18 9.29c11.03-1.34 22.6 2.11 30.81 9.67 12.85 11.1 16.72 30.98 9.02 46.11-4.87 10.15-14.38 17.94-25.3 20.69-17.63 4.89-37.73-4.69-45.09-21.42-5.12-10.89-4.75-24.17 1.01-34.75 5.81-11.01 17.16-18.87 29.55-20.3m1.03 5.95c-6.14.74-12.12 3.12-16.92 7.06-11.43 8.95-15.56 25.79-9.47 38.99 5.81 13.65 21.55 22.16 36.15 19.12 14.87-2.44 26.79-16.31 26.98-31.38.43-10.45-4.56-20.86-12.84-27.2-6.69-5.22-15.49-7.53-23.9-6.59z"/><path d="M45 55.76c7.27-7.32 14.59-14.6 21.89-21.9 1.41 1.4 2.83 2.8 4.23 4.21-8.74 8.68-17.4 17.43-26.14 26.11-5.7-5.7-11.37-11.44-17.11-17.1 1.41-1.41 2.82-2.82 4.24-4.22 4.3 4.3 8.61 8.58 12.89 12.9z"/></svg>
