<svg width="128" height="128" viewBox="0 0 96 96" xmlns="http://www.w3.org/2000/svg"><path d="M39.08 22.95c.37-6.74 7.25-12.08 13.89-10.74 4.82.56 8.29 4.53 9.84 8.89 6.41 1.57 11.81 7.05 12.1 13.83.91 8.74-7.24 16.91-15.98 16-8.29-.37-14.54-8.34-14.04-16.42-3.65-2.64-6.4-6.89-5.81-11.56m8.85-4.09c-3.55 1.93-3.59 6.76-1.22 9.64 2.47-3.48 5.94-5.97 9.95-7.35-2.08-2.49-5.69-4.29-8.73-2.29m10.24 8.35c-4.41.78-7.7 5.29-7.1 9.73.38 4.8 5.17 8.67 9.94 8 4.77-.47 8.6-5.22 7.9-9.99-.41-5.09-5.78-8.92-10.74-7.74zM12.12 53.24c7.68-2.67 15.64-5.5 23.9-5.12 7.7.97 14.59 5 21.04 9.08 5.7-.8 11.35-2.02 17.07-2.67 5.66-.66 10.78 4.96 9.73 10.53-.41 3.47-3.09 6.28-6.28 7.48-9.51 3.97-19.09 7.83-28.93 10.92-6.65 1.97-11.77-4.13-17.3-6.73-3.16-2.62-7.26-1.39-10.8-.42a897.6 897.6 0 0 0-2.27-5.48c3.7-1.02 7.59-2.38 11.47-1.46 5.81 1.96 10.33 6.64 16.12 8.53 10.28-2.8 20.16-7.04 29.96-11.2 3.24-.84 2.58-6.28-.83-6.17-4.97.42-9.85 1.56-14.77 2.29-.44 2.37-.73 5.02-2.68 6.69-2.37 2.58-6.39 3.05-9.47 1.56-4.27-1.93-8.45-4.06-12.69-6.05.88-1.78 1.74-3.58 2.58-5.38 4.4 1.97 8.64 4.31 13.12 6.11 1.69 1.09 4.04-1.75 2.34-3.09-1.99-2.15-4.61-3.56-7.19-4.86-4.16-1.97-8.58-4.07-13.3-3.74-6.45.46-12.56 2.77-18.65 4.74-.72-1.86-1.44-3.71-2.17-5.56z"/></svg>
