<svg width="128" height="128" viewBox="0 0 96 96" style="fill: #FFFFFF;" xmlns="http://www.w3.org/2000/svg"><path d="M9 12h78v45H9V12m12.29 6.01c-.62 3.27-3.02 5.66-6.28 6.3-.02 6.8-.02 13.6 0 20.4 3.29.57 5.68 3.02 6.28 6.28 17.81.02 35.61.02 53.41 0 .59-3.26 3-5.72 6.29-6.28.02-6.8.01-13.6 0-20.4-3.26-.64-5.69-3.01-6.29-6.3-17.8-.01-35.6-.02-53.41 0z"/><path d="M44.45 21.64c6.43-2.37 13.43 2.41 14.95 8.77 2.35 7.29-2.29 16.72-10.34 17.5-6.74.78-12.46-5.37-12.94-11.78-.75-5.91 2.51-12.5 8.33-14.49m1.85 5.67c-5.69 2.35-5.72 11.81-.15 14.32 4.13 1.69 7.86-2.73 7.82-6.61.53-4.14-3.1-9.28-7.67-7.71zM24.16 30.21c3.3-1.17 6.84 2.35 5.62 5.64-.82 3.16-5.29 4.22-7.49 1.82-2.36-2.21-1.28-6.65 1.87-7.46zM69.16 30.21c3.3-1.18 6.85 2.35 5.62 5.64-.83 3.13-5.22 4.2-7.44 1.87-2.42-2.19-1.36-6.69 1.82-7.51zM45 62.99c2 .02 4 .02 6 0-.02 3.01.02 6.01 0 9.01 4-.01 8.01.01 12.02 0C58 76.99 53.01 82 48 87c-5.01-5-10-10.01-15.02-15 4.01.01 8.02-.01 12.02 0-.02-3 .02-6.01 0-9.01z"/></svg>
