<svg width="128" height="128" viewBox="0 0 96 96" xmlns="http://www.w3.org/2000/svg"><path fill="#000" d="M41.1 16.18c7.85-2.8 17.31-.41 22.7 6.01 8.26 8.9 6.24 24.49-3.9 31.13 10.71 4.78 18.2 15.86 18.14 27.66-1.99.02-3.98.02-5.97.02-.08-8.23-4.51-16.07-11.41-20.51-2.6 5.86-9.23 9.78-15.62 8.13-4.41-.82-7.79-4.25-9.7-8.15-6.9 4.46-11.37 12.28-11.41 20.53-1.99 0-3.98 0-5.97-.02-.01-11.69 7.3-23.09 18.2-27.5-4.9-3.67-8.55-9.16-9.04-15.36-1.13-9.38 4.97-19.05 13.98-21.94m4.14 5.08c-7.66 1.26-13.35 9.12-12.1 16.79.9 7.97 9.04 14.14 16.96 12.79 7.95-.94 14.1-9.04 12.74-16.96-.95-8.2-9.52-14.36-17.6-12.62m-4.39 36.83c1.16 2.42 3.3 4.51 6.07 4.82 3.52.64 6.78-1.74 8.24-4.82-4.65-1.41-9.67-1.42-14.31 0z"/></svg>
