<svg width="100px" height="100px" viewBox="0 0 100 100" xmlns="http://www.w3.org/2000/svg"><path fill="#c8c8c8" d="M36.3 16.31c3.58-6.5 11.93-8.18 18.73-7.27 3.46.15 5.55 3.35 8.79 4.17 3.07.89 4.99 3.92 5.77 6.87 1.36 5.57.06 11.31-1.26 16.76 2.45 3.21 1.43 8.22-2 10.3-.94 3.53-2.23 6.99-4.63 9.81.09 2.94-.38 6.01.54 8.86 1.99 3.52 6.09 4.9 9.62 6.35 5.57 2.33 11.79 4.47 15.42 9.62 1.77 2.39 2.3 5.35 2.81 8.2-25.39.03-50.79.03-76.18 0 .51-3.57 1.52-7.24 4.15-9.86 5.78-6.16 14.82-7 21.53-11.69 3.85-2.55 2.66-7.61 2.8-11.51-2.43-2.8-3.79-6.23-4.72-9.77-3.45-2.09-4.48-7.16-1.95-10.36-1.42-6.68-2.76-14.14.58-20.48z"/></svg>
