<svg width="128" height="128" viewBox="0 0 96 96" style="fill: #cc283b" xmlns="http://www.w3.org/2000/svg"><path d="M43.2 9.29c10.58-1.27 21.68 1.82 29.79 8.8 9.98 8.18 15.29 21.57 13.72 34.37C84.99 69.75 70.4 84.7 53.1 86.63c-16.45 2.46-33.71-7.1-40.47-22.27-5.12-10.87-4.76-24.14.97-34.71C19.4 18.6 30.79 10.72 43.2 9.29m1.02 5.95c-14.13 1.36-26.37 12.9-28.68 26.88-2.57 13.14 3.9 27.29 15.4 34.08 13.3 8.47 32.36 5.29 42.26-6.97 10.65-12.08 10.21-31.91-.91-43.55-6.94-7.77-17.76-11.64-28.07-10.44z"/><path d="M32.39 36.6c1.39-1.44 2.81-2.86 4.25-4.24 3.79 3.76 7.55 7.55 11.36 11.3 3.81-3.74 7.56-7.55 11.36-11.3 1.45 1.38 2.86 2.8 4.25 4.24-3.78 3.79-7.58 7.55-11.33 11.35 3.76 3.81 7.57 7.57 11.34 11.37-1.42 1.42-2.84 2.85-4.25 4.29C55.58 59.81 51.81 56 48 52.23c-3.82 3.77-7.59 7.58-11.37 11.38-1.42-1.44-2.84-2.87-4.25-4.3 3.77-3.79 7.58-7.55 11.34-11.36-3.76-3.81-7.56-7.56-11.33-11.35z"/></svg>
