<svg width="128" height="128" viewBox="0 0 96 96" style="fill: #2d3b91" xmlns="http://www.w3.org/2000/svg"><path d="M51.72 13.82c7.69-2.55 16.36-2.47 23.92.53 3.97 1.62 8.24 4.79 8.3 9.51.15 11.72.03 23.45.06 35.17.33 3.97-2.33 7.4-5.65 9.23-7.23 4.17-16.11 4.4-24.12 2.76-.15 4.5-3.19 8.2-7.19 9.97-7.82 3.71-17.15 3.83-25.32 1.19-4.44-1.6-9.58-4.77-9.66-10.07-.11-8.07-.11-16.15 0-24.21-.04-3.32 2.28-6.1 4.95-7.79 7.41-4.62 16.69-4.77 25.02-3.1.09-4.96-.38-9.96.25-14.89 1.12-4.38 5.48-6.86 9.44-8.3m7.54 4.41c-4.1.67-9.55 1.51-11.35 5.8.92 2.72 3.92 3.86 6.41 4.72 6.79 1.93 14.51 1.81 20.86-1.51 1.5-.86 3.92-2.81 2.24-4.62-4.67-4.63-11.98-4.82-18.16-4.39M47.84 32.57c.36 1.77-.32 4.05 1.24 5.37 3.22 2.84 7.69 3.64 11.83 3.98 5.29.22 11.06-.32 15.47-3.51 2.05-1.23 1.48-3.85 1.79-5.84-9.43 4.55-20.9 4.56-30.33 0m-18.59 9.66c-4.11.66-9.46 1.53-11.37 5.75 1.08 3.02 4.49 4.17 7.29 5.01 6.58 1.64 13.95 1.45 20.03-1.77 1.51-.88 3.98-2.87 2.18-4.63-4.66-4.61-11.97-4.79-18.13-4.36m24.7 4.76l.09 5.78c7.35 1.75 15.87 2.08 22.35-2.37 2.04-1.24 1.48-3.84 1.77-5.83-7.47 3.72-16.13 4.11-24.21 2.42m-36.11 9.58c.35 1.75-.31 3.99 1.19 5.33 3.24 2.88 7.76 3.69 11.95 4.03 5.28.21 11.03-.34 15.42-3.54 2.04-1.24 1.47-3.84 1.76-5.82-9.42 4.55-20.9 4.56-30.32 0m36.14 2.41c.02 1.94.03 3.88.05 5.83 7.36 1.68 15.88 2.05 22.37-2.41 2.03-1.24 1.47-3.84 1.76-5.83-7.46 3.67-16.12 4.18-24.18 2.41m-36.14 9.59c.36 1.76-.31 4.02 1.22 5.35 3.23 2.86 7.72 3.67 11.89 4 5.29.22 11.06-.33 15.47-3.54 2.02-1.24 1.44-3.83 1.75-5.81-9.43 4.54-20.9 4.56-30.33 0z"/></svg>
