<svg width="128" height="128" viewBox="0 0 96 96" xmlns="http://www.w3.org/2000/svg"><path fill="#ed1c24" d="M17.38 21.59c1.41-1.43 2.82-2.84 4.25-4.24C30.44 26.1 39.19 34.92 48 43.67c8.81-8.75 17.55-17.57 26.37-26.32 1.43 1.4 2.84 2.81 4.24 4.24-8.77 8.8-17.58 17.55-26.33 26.36 8.76 8.81 17.57 17.57 26.34 26.37-1.42 1.42-2.84 2.85-4.24 4.29C65.59 69.81 56.81 61 48 52.23 39.19 61 30.4 69.81 21.62 78.61c-1.41-1.44-2.83-2.87-4.24-4.29 8.77-8.8 17.57-17.56 26.34-26.37-8.76-8.81-17.57-17.56-26.34-26.36z"/></svg>
