<svg width="128" height="128" viewBox="0 0 96 96" xmlns="http://www.w3.org/2000/svg"><path fill="#FFFFFF" d="M18.47 15.65c1.74-.73 3.68-.61 5.53-.67 16.67.07 33.35-.03 50.03.04 2.1-.02 4.35.57 5.66 2.33 1.53 1.84 1.24 4.42 1.33 6.65-.11 17.05.12 34.1-.11 51.14.06 3.54-3.44 6.19-6.84 5.85-17.35.02-34.7.01-52.05 0-3.92.47-7.52-3.01-7.01-6.97-.02-17.36-.03-34.71.01-52.06-.18-2.56 1-5.26 3.45-6.31M21 21v54c9.68 0 19.36 0 29.05-.01 0-6.75.01-13.5-.01-20.25-2.6 0-5.2-.02-7.8-.01 0-2.97.02-5.95-.1-8.93 2.63-.14 5.27-.2 7.9-.12.13-5.2-.87-11.37 3.19-15.44 4.04-4.11 10.24-3.23 15.43-2.86.06 2.7.02 5.4-.04 8.1-2.83.28-6.57-.88-8.67 1.62-1 2.72-.42 5.72-.55 8.56 2.99-.01 5.97.02 8.96.01-.38 3.05-.71 6.1-1.27 9.12-2.54-.05-5.09-.08-7.63-.08-.15 6.75.01 13.49-.09 20.24 5.21.09 10.42.04 15.63.05V21H21z"/></svg>
