<svg width="128" height="128" viewBox="0 0 96 96" xmlns="http://www.w3.org/2000/svg" style="fill: #FFF"><path d="M29.45 15.63c7.1-1.27 14.39-.36 21.57-.63 6.11.26 12.58-.91 18.36 1.61 6.77 2.92 11.56 9.95 11.58 17.36.03 9.69.16 19.4-.06 29.1-.44 9.65-9.2 17.94-18.85 17.9-9.38.06-18.77.06-28.15 0-7.65-.04-14.91-5.19-17.58-12.34-1.65-4-1.3-8.42-1.33-12.65.1-7.7-.14-15.4.1-23.08.41-8.06 6.55-15.34 14.36-17.27m.92 5.94c-5.27 1.63-9.3 6.75-9.32 12.32-.09 9.39-.09 18.79 0 28.18-.02 6.81 6.05 12.86 12.86 12.87 7.68.19 15.37-.03 23.05.08 3.55-.04 7.34.27 10.6-1.42 4.7-2.24 7.66-7.42 7.43-12.6.02-8.7.02-17.39 0-26.09.17-4.62-2.13-9.27-6.07-11.74-5-3.41-11.33-1.83-16.97-2.17-7.18.31-14.48-.67-21.58.57z"/><path d="M64.21 28.09c2.6-2.18 6.03 2.4 3.16 4.31-2.68 2.39-6.27-2.49-3.16-4.31zM43.43 30.63c8.45-2.43 18.11 2.43 21.22 10.64 3.09 7.17.61 16.12-5.57 20.83-4.52 3.55-10.79 4.92-16.3 3.07-7.02-2.09-12.37-8.78-12.74-16.11-.61-8.28 5.28-16.51 13.39-18.43m.91 5.97c-4.51 1.4-7.92 5.65-8.29 10.35-.66 6.02 3.95 11.91 9.91 12.87 7.44 1.56 14.91-5.43 13.97-12.94-.47-7.31-8.66-12.85-15.59-10.28z"/></svg>
