<svg width="128" height="128" viewBox="0 0 96 96" xmlns="http://www.w3.org/2000/svg"><path fill="#FFFFFF" d="M34.71 14.58c15.22-6.46 34.25-.4 43.19 13.44 9.4 13.48 7.61 33.25-3.97 44.88-10.64 11.43-28.99 14.46-42.7 6.93-8.89-4.64-15.48-13.17-18.1-22.82 2.07 0 4.13 0 6.2.01C22.58 67 31.18 75.11 41.51 77.27 56 80.84 71.99 71.63 76.44 57.45c4.82-13.52-1.84-29.81-14.74-36.1-11.67-6.23-27.19-3.44-35.91 6.52-2.97 3.15-4.98 7.06-6.45 11.11-2.07.01-4.13.01-6.2.02 2.88-10.91 11.02-20.32 21.57-24.42z"/><path fill="#FFFFFF" d="M41.74 38.07c1.41-1.4 2.82-2.81 4.24-4.21 4.71 4.73 9.46 9.41 14.12 14.17-4.74 4.64-9.37 9.39-14.12 14.01-1.4-1.39-2.8-2.78-4.19-4.17 2.25-2.31 4.52-4.59 6.81-6.86-12.2-.03-24.4 0-36.6-.01v-6c12.23-.01 24.46.01 36.7-.01-2.31-2.32-4.62-4.63-6.96-6.92z"/></svg>
