<svg width="128" height="128" viewBox="0 0 96 96" xmlns="http://www.w3.org/2000/svg"><path fill="#ed1c24" d="M39.92 12.92c13.94-3.31 29.38 2.57 37.54 14.35-1.62 1.16-3.26 2.3-4.87 3.46-5.24-7.19-13.6-12.17-22.56-12.61-9.96-.78-20.09 3.86-26.03 11.87-8.42 10.85-7.83 27.43 1.34 37.65 8.79 10.51 25.09 13.45 37 6.66 4.12-2.12 7.46-5.43 10.26-9.07 1.63 1.16 3.25 2.33 4.86 3.51-7.1 9.97-19.35 15.96-31.6 15.19-13.85-.74-26.77-10.18-31.53-23.23-3.42-9.01-3.01-19.38 1.12-28.08 4.61-9.82 13.88-17.31 24.47-19.7z"/><path fill="#ed1c24" d="M65.76 38.05c1.4-1.4 2.81-2.8 4.23-4.19 4.7 4.73 9.45 9.41 14.11 14.17-4.74 4.64-9.37 9.39-14.12 14.01-1.4-1.38-2.79-2.77-4.18-4.15 2.23-2.33 4.51-4.61 6.79-6.88-12.19-.03-24.39 0-36.59-.01v-6c12.23-.01 24.46.01 36.69-.01-2.3-2.32-4.62-4.62-6.93-6.94z"/></svg>
