<svg xmlns="http://www.w3.org/2000/svg" viewBox="0 0 96 96"><path fill="#FFFFFF" d="M28.9 13.5c11.8-5.9 26.3-5.9 38.1 0-1.7 3.6-3.5 7.1-5.3 10.7 7.9 1 15.7 4.2 21.5 9.7-1.5 1.3-2.9 2.7-4.4 4-2.7-2.2-5.6-4-8.7-5.5 6.4 6.1 12 13.6 13.4 22.5 1.1 7.4.4 15.9-5.1 21.5-5 5.1-12.5 6.4-19.3 7.1-8.3.6-16.8.7-25.1-.3-6.3-.8-13.1-2.7-17.4-7.7-5-6-5.3-14.6-3.9-22C15.4 41.4 24.8 32.1 35 25.8c-2-4.1-4.1-8.2-6.1-12.3m8.3 3.1c1.2 2.5 2.5 4.9 3.7 7.4h14.2c1.2-2.5 2.5-4.9 3.7-7.4-7-2.1-14.6-2.1-21.6 0m2.1 13.7c-7 4-13.4 9.5-17.5 16.5-3.9 6.7-5.1 15.3-2 22.5 2.8 5.7 9.6 7.3 15.3 8 8.9.9 18 .9 26.9-.1 5.4-.8 11.7-2.6 14.3-7.9 3.4-8.2 1.6-17.9-3.6-25-4.3-5.9-10-11-16.6-14.3-5.6.1-11.3-.4-16.8.3z"/><path fill="#FFFFFF" d="M29.8 64.7V46.5h5v6.9l5.5-6.9h5.6l-6.6 8.1 7.1 10h-5.7L36.2 58l-1.4 1.4v5.2h-5zM61.2 64.7v-9.6l-3 6.7h-2.7l-3-6.7v9.6h-5V46.5H53l3.9 8.6 3.9-8.6h5.4v18.2h-5z"/></svg>
