<svg width="128" height="128" viewBox="0 0 96 96" style="fill: #FFFFFF;" xmlns="http://www.w3.org/2000/svg"><path d="M33.01 24C38 19 42.99 14 48 9.02 53.01 14 58 19 62.99 24c-4-.01-8 .02-11.99 0 .02 3-.02 6.01 0 9.01-2-.03-4-.03-6 0 .02-3-.02-6.01 0-9.01-3.99.02-7.99-.01-11.99 0zM9 39h78v45H9V39m12.32 6.01c-.66 3.28-3.06 5.63-6.31 6.33-.01 6.78-.02 13.56 0 20.35 3.28.61 5.65 3.04 6.31 6.3 17.78.02 35.57.02 53.36 0 .64-3.26 3.03-5.7 6.31-6.3.02-6.79.01-13.57 0-20.35-3.26-.69-5.66-3.05-6.32-6.33-17.78-.01-35.56-.02-53.35 0z"/><path d="M44.46 48.64c6.16-2.27 12.98 2.05 14.73 8.1 2.62 7.06-1.32 16.44-9.05 18-6.71 1.53-13.01-4.24-13.9-10.68-1.17-6.16 2.07-13.32 8.22-15.42m1.76 5.7c-5.95 2.49-5.54 12.94.85 14.56 4.33.78 7.34-4.1 6.9-7.96.03-3.87-3.62-8.15-7.75-6.6zM24.24 57.19c3.25-1.09 6.69 2.33 5.57 5.57-.77 3.18-5.21 4.32-7.45 1.97-2.47-2.2-1.36-6.78 1.88-7.54zM69.2 57.2c3.27-1.13 6.78 2.34 5.59 5.62-.8 3.15-5.23 4.25-7.45 1.89-2.43-2.19-1.34-6.73 1.86-7.51z"/></svg>
