<svg width="128" height="128" viewBox="0 0 96 96" xmlns="http://www.w3.org/2000/svg"><path fill="#FFFFFF" d="M25.75 17.71c8.32-7.87 20.99-10.66 31.88-7.22 12.59 3.6 21.93 15.41 23.3 28.33 2.64.55 5.64 2.02 5.87 5.07.28 5.99.52 12.08-.16 18.06-1.29 2.28-3.22 4.18-4.17 6.68-1.78 4.1-6.28 6.1-10.5 6.52-6.98 9.14-19.28 13.81-30.52 11.1-10.65-2.33-19.29-10.86-22.46-21.2-4.32-2.38-7.57-7-6.92-12.1.03-3.63 3.48-6.25 2.96-9.99-.31-9.45 3.69-18.92 10.72-25.25m5.32 3.32c-5.45 4.26-8.71 10.7-10.04 17.39 8.69-4.75 19.07-.42 27.99-4.23 4.03-1.67 4.82-6.35 5.13-10.19h5.74c.38 3.58.55 8.07 4.03 10.15 3.34 1.6 7.15 1.83 10.74 2.6-1.82-7.25-6.18-13.94-12.67-17.82-9.4-5.82-22.43-5.03-30.92 2.1m15.86 20.11c-6.92 1.64-14.2-.14-21.08 1.68-2.28.54-1.67 3.24-1.98 4.97-2.95.74-6.04 2.77-5.87 6.2-.2 3.56 3.19 5.63 6.17 6.54 1.66 9.9 9.75 18.46 19.73 20.11 7.13 1.34 14.58-.97 20.09-5.57-5.27-.3-10.57.3-15.81-.3-3.8-.88-4.26-6.73-.72-8.28 2.55-1.4 5.12.37 6.56 2.46 6.01.04 12.02.14 18.03.01 2.26.15 3.92-1.46 5.46-2.85-1.84-.07-3.67-.11-5.51-.14 0-7.9.01-15.81-.01-23.71-5.61-.61-11.66-1.84-15.26-6.64-2.56 2.87-5.99 4.89-9.8 5.52M78 45v15h3V45h-3z"/><path fill="#FFFFFF" d="M36.18 48.2c3.28-1.14 6.79 2.32 5.62 5.61-.8 3.16-5.26 4.27-7.48 1.89-2.4-2.2-1.32-6.69 1.86-7.5zM57.25 48.18c3.26-1.07 6.7 2.37 5.55 5.62-.8 3.18-5.27 4.28-7.48 1.89-2.43-2.22-1.29-6.75 1.93-7.51z"/></svg>
