<svg xmlns="http://www.w3.org/2000/svg" style="fill: #fab600" viewBox="0 0 96 96"><path d="M87 27c-.7 2-1.5 4-2.2 6H69V22.3c-3.9.8-7.8 1.6-11.8 2.4-1.3-2.1-2.8-4.2-4.1-6.3-3.4 3.3-6.7 6.8-10.2 10.1-4-2.4-8-4.8-12.1-7.2-.7 2.9-1.5 5.8-2.1 8.7h-9.9l1.5 3h-6.7c-1.5-3-3.1-6-4.6-9h15l3-12c5 2.9 10 6 15 8.9C46 17 50 13 54 9l6 9 15-3v12h12zM84 75H72l-3 9c-5-2-10-4-15-5.9-3 2.9-6 6-9 8.9l-6-9c-5 1.9-10 4-15 6V72H12c.6-1.9 1.3-3.9 1.9-5.8H30v9c3.8-1.5 7.5-3.1 11.3-4.5 1.5 2.3 3.1 4.6 4.7 6.9 2.2-2.2 4.4-4.3 6.5-6.6 4.3 1.7 8.5 3.5 12.8 5.1.8-2.4 1.6-4.7 2.4-7h8.6c-.2-.9-.5-1.9-.7-2.8h6.2c.7 2.8 1.5 5.8 2.2 8.7z"/><g><path d="M16.6 61.2c-.2-.2-.4-.5-.4-.8l-3.7-22v-.2c0-.2.1-.3.2-.5.1-.1.3-.2.5-.2h4.5c.7 0 1 .3 1.1.8l2.1 13 2.4-7.5c.2-.6.6-.9 1.1-.9H27c.6 0 .9.3 1.1.9l2.4 7.5 2.1-13c0-.3.1-.5.3-.6s.4-.2.8-.2h4.5c.2 0 .4.1.5.2.1.1.2.3.2.5v.2l-3.7 22c0 .3-.2.6-.4.8-.3.2-.6.3-.9.3h-3.5c-.4 0-.7-.1-.9-.3-.2-.2-.3-.4-.4-.6l-3.4-9.5-3.4 9.5c-.1.2-.2.4-.4.6-.2.2-.5.3-.9.3h-3.4c-.4 0-.8-.1-1-.3zM47.4 61.2c-.2-.2-.3-.4-.3-.6V38.3c0-.3.1-.5.3-.6.2-.2.4-.2.6-.2h4.9c.3 0 .5.1.6.2s.2.4.2.6v22.3c0 .2-.1.4-.2.6s-.4.3-.6.3H48c-.2 0-.4-.1-.6-.3zM62.9 61.2c-.2-.2-.3-.4-.3-.6V38.3c0-.3.1-.5.2-.6s.4-.3.6-.3h3.9c.5 0 .9.2 1.2.7l8.1 12.8V38.3c0-.3.1-.5.2-.6.2-.2.4-.3.6-.3h4.4c.3 0 .5.1.6.3.2.2.2.4.2.6v22.3c0 .3-.1.5-.2.6-.2.2-.4.3-.6.3H78c-.5 0-.9-.2-1.2-.7l-8.1-12.3v12.1c0 .3-.1.5-.3.6-.2.2-.4.2-.6.2h-4.4c-.1.1-.3 0-.5-.2z"/></g></svg>
